<?xml version="1.0" standalone="no"?>
<!DOCTYPE svg PUBLIC "-//W3C//DTD SVG 20010904//EN"
 "http://www.w3.org/TR/2001/REC-SVG-20010904/DTD/svg10.dtd">
<svg version="1.0" xmlns="http://www.w3.org/2000/svg"
 width="460.000000pt" height="460.000000pt" viewBox="0 0 460.000000 460.000000"
 preserveAspectRatio="xMidYMid meet">
<metadata>
Created by potrace 1.11, written by Peter Selinger 2001-2013
</metadata>
<g transform="translate(0.000000,460.000000) scale(0.100000,-0.100000)"
fill="#000000" stroke="none">
<path d="M2191 4579 c-72 -29 -142 -99 -169 -170 -19 -49 -20 -77 -21 -328 -1
-151 -3 -276 -5 -278 -3 -3 -192 -43 -276 -59 -14 -2 -47 -9 -75 -14 -27 -6
-61 -12 -75 -15 -14 -3 -36 -7 -50 -10 -26 -6 -57 -12 -100 -20 -14 -3 -34 -7
-45 -9 -92 -20 -589 -116 -622 -121 -92 -13 -168 -66 -220 -153 -24 -42 -27
-57 -28 -137 0 -66 5 -98 17 -121 l17 -31 -191 -384 c-105 -211 -226 -455
-270 -543 l-79 -159 5 -70 c23 -284 203 -536 469 -657 215 -97 484 -89 692 20
154 81 281 215 356 373 37 81 69 207 71 282 2 60 0 64 -265 596 l-267 536 19
54 c20 60 21 63 21 84 0 13 57 15 450 15 l450 0 0 -1330 0 -1329 -151 -3 -152
-3 -99 -147 -99 -148 -150 0 -149 0 0 -150 0 -150 1100 0 1100 0 0 150 0 150
-150 0 -150 0 -100 150 -100 150 -150 0 -150 0 0 1330 0 1330 450 0 c353 0
450 -3 451 -12 2 -36 12 -76 25 -104 15 -32 15 -32 -182 -431 -371 -750 -341
-684 -337 -754 5 -77 44 -212 83 -287 117 -228 313 -376 568 -429 91 -19 253
-13 347 13 289 78 517 319 578 610 31 146 40 120 -254 710 l-266 532 18 43
c10 24 18 71 18 104 2 162 -107 281 -279 305 -38 5 -89 14 -113 19 -54 12 -95
21 -127 26 -14 2 -115 22 -225 44 -110 22 -211 42 -225 45 -14 3 -50 10 -80
16 -30 6 -66 14 -80 16 -170 33 -363 74 -366 76 -1 2 -5 129 -7 283 -1 154 -6
291 -10 303 -11 41 -55 109 -89 138 -83 69 -210 91 -307 53z m2065 -2546 c-5
-6 -906 -7 -911 -1 -1 1 101 211 227 465 l230 462 230 -461 c126 -253 227
-463 224 -465z m-3354 719 c53 -108 156 -315 227 -459 74 -149 125 -263 118
-264 -67 -3 -900 0 -903 4 -2 2 37 87 87 188 243 491 364 729 369 729 3 -1 49
-90 102 -198z"/>
</g>
</svg>
